<?xml version="1.0" encoding="utf-8"?>
<!-- Generator: Adobe Illustrator 25.0.0, SVG Export Plug-In . SVG Version: 6.00 Build 0)  -->
<svg version="1.1" id="Слой_2" xmlns="http://www.w3.org/2000/svg" xmlns:xlink="http://www.w3.org/1999/xlink" x="0px" y="0px"
	 viewBox="0 0 512 512" style="enable-background:new 0 0 512 512;" xml:space="preserve">
<style type="text/css">
	.st0{fill:#FFFFFF;}
	.st1{fill:url(#SVGID_1_);}
	.st2{fill:#063248;}
	.st3{fill:#D85624;}
	.st4{fill:#1F8BAA;}
	.st5{fill:#036D77;}
	.st6{fill:url(#SVGID_2_);}
	.st7{fill:url(#SVGID_3_);}
	.st8{fill:#91AEBC;}
	.st9{fill:url(#SVGID_4_);}
	.st10{opacity:0.46;fill:url(#SVGID_5_);}
	.st11{opacity:0.46;fill:url(#SVGID_6_);}
	.st12{opacity:0.21;fill:url(#SVGID_7_);}
	.st13{opacity:0.21;fill:url(#SVGID_8_);}
	.st14{opacity:0.21;fill:url(#SVGID_9_);}
	.st15{fill:url(#SVGID_10_);}
	.st16{fill:url(#SVGID_11_);}
	.st17{opacity:0.46;fill:url(#SVGID_12_);}
	.st18{opacity:0.21;fill:url(#SVGID_13_);}
	.st19{opacity:0.21;fill:url(#SVGID_14_);}
	.st20{opacity:0.21;fill:url(#SVGID_15_);}
	.st21{opacity:0.47;fill:url(#SVGID_16_);}
	.st22{fill:url(#SVGID_17_);}
	.st23{fill:url(#SVGID_18_);}
	.st24{opacity:0.46;fill:url(#SVGID_19_);}
	.st25{fill:url(#SVGID_20_);}
	.st26{fill:url(#SVGID_21_);}
	.st27{opacity:0.46;fill:url(#SVGID_22_);}
</style>
<path class="st0" d="M459.55,311.26H124.02c-16.8,0-30.41-13.62-30.41-30.41v-50.64c0-16.8,13.62-30.41,30.41-30.41h335.53
	c16.8,0,30.41,13.62,30.41,30.41v50.64C489.96,297.65,476.35,311.26,459.55,311.26z"/>
<linearGradient id="SVGID_1_" gradientUnits="userSpaceOnUse" x1="287.5736" y1="199.2254" x2="287.5736" y2="314.8732">
	<stop  offset="0" style="stop-color:#FFFFFF"/>
	<stop  offset="0.2181" style="stop-color:#C0E2E6"/>
	<stop  offset="0.7203" style="stop-color:#239AA9"/>
	<stop  offset="0.8304" style="stop-color:#008A9B"/>
	<stop  offset="0.9086" style="stop-color:#008899"/>
	<stop  offset="0.9368" style="stop-color:#018193"/>
	<stop  offset="0.9569" style="stop-color:#017688"/>
	<stop  offset="0.9732" style="stop-color:#036578"/>
	<stop  offset="0.9869" style="stop-color:#044F63"/>
	<stop  offset="0.999" style="stop-color:#06344A"/>
	<stop  offset="1" style="stop-color:#063248"/>
</linearGradient>
<path class="st1" d="M457.02,305.9h-338.9c-13.72,0-24.84-11.12-24.84-24.84V230c0-13.72,11.12-24.84,24.84-24.84h338.9
	c13.72,0,24.84,11.12,24.84,24.84v51.05C481.86,294.78,470.74,305.9,457.02,305.9z"/>
<circle class="st0" cx="99.62" cy="255.53" r="70.3"/>
<circle class="st2" cx="99.62" cy="255.53" r="65.97"/>
<polygon class="st3" points="132.34,271.73 112.45,264.45 107.02,285.44 107.42,271.05 107.81,256.66 120.08,264.19 "/>
<polygon class="st3" points="68.36,258.04 87.1,248.15 75.15,230.06 85.57,239.99 95.99,249.93 82.17,253.98 "/>
<g>
	<g>
		<path class="st4" d="M72.36,260.75l-12.49-9.68c-1.89-1.47-2.24-4.19-0.77-6.09l16.85-21.74c1.47-1.89,4.19-2.24,6.09-0.77
			l12.49,9.68c1.89,1.47,2.24,4.19,0.77,6.09l-16.85,21.74C76.98,261.87,74.26,262.21,72.36,260.75z"/>
		<path class="st5" d="M66.1,251.66l-4.25-3.3c-0.61-0.47-0.72-1.35-0.25-1.96l3.4-4.39c0.47-0.61,1.35-0.72,1.96-0.25l4.25,3.3
			c0.61,0.47,0.72,1.35,0.25,1.96l-3.4,4.39C67.59,252.02,66.71,252.13,66.1,251.66z"/>
		<path class="st5" d="M74.53,257.6l-4.25-3.3c-0.61-0.47-0.72-1.35-0.25-1.96l3.4-4.39c0.47-0.61,1.35-0.72,1.96-0.25l4.25,3.3
			c0.61,0.47,0.72,1.35,0.25,1.96l-3.4,4.39C76.02,257.96,75.14,258.07,74.53,257.6z"/>
		<path class="st5" d="M72.52,243.26l-4.25-3.3c-0.61-0.47-0.72-1.35-0.25-1.96l3.4-4.39c0.47-0.61,1.35-0.72,1.96-0.25l4.25,3.3
			c0.61,0.47,0.72,1.35,0.25,1.96l-3.4,4.39C74,243.62,73.13,243.73,72.52,243.26z"/>
		<path class="st5" d="M80.95,249.19l-4.25-3.3c-0.61-0.47-0.72-1.35-0.25-1.96l3.4-4.39c0.47-0.61,1.35-0.72,1.96-0.25l4.25,3.3
			c0.61,0.47,0.72,1.35,0.25,1.96l-3.4,4.39C82.44,249.55,81.56,249.66,80.95,249.19z"/>
		<path class="st5" d="M78.87,235.05l-4.25-3.3c-0.61-0.47-0.72-1.35-0.25-1.96l3.4-4.39c0.47-0.61,1.35-0.72,1.96-0.25l4.25,3.3
			c0.61,0.47,0.72,1.35,0.25,1.96l-3.4,4.39C80.36,235.42,79.48,235.53,78.87,235.05z"/>
		<path class="st5" d="M87.3,240.99l-4.25-3.3c-0.61-0.47-0.72-1.35-0.25-1.96l3.4-4.39c0.47-0.61,1.35-0.72,1.96-0.25l4.25,3.3
			c0.61,0.47,0.72,1.35,0.25,1.96l-3.4,4.39C88.79,241.35,87.91,241.46,87.3,240.99z"/>
	</g>
	<g>
		<path class="st4" d="M115.01,293.19l-12.49-9.68c-1.89-1.47-2.24-4.19-0.77-6.09l16.85-21.74c1.47-1.89,4.19-2.24,6.09-0.77
			l12.49,9.68c1.89,1.47,2.24,4.19,0.77,6.09l-16.85,21.74C119.62,294.31,116.9,294.66,115.01,293.19z"/>
		<path class="st5" d="M108.74,284.1l-4.25-3.3c-0.61-0.47-0.72-1.35-0.25-1.96l3.4-4.39c0.47-0.61,1.35-0.72,1.96-0.25l4.25,3.3
			c0.61,0.47,0.72,1.35,0.25,1.96l-3.4,4.39C110.23,284.47,109.35,284.58,108.74,284.1z"/>
		<path class="st5" d="M117.18,290.04l-4.25-3.3c-0.61-0.47-0.72-1.35-0.25-1.96l3.4-4.39c0.47-0.61,1.35-0.72,1.96-0.25l4.25,3.3
			c0.61,0.47,0.72,1.35,0.25,1.96l-3.4,4.39C118.67,290.4,117.79,290.51,117.18,290.04z"/>
		<path class="st5" d="M115.16,275.7l-4.25-3.3c-0.61-0.47-0.72-1.35-0.25-1.96l3.4-4.39c0.47-0.61,1.35-0.72,1.96-0.25l4.25,3.3
			c0.61,0.47,0.72,1.35,0.25,1.96l-3.4,4.39C116.65,276.06,115.77,276.17,115.16,275.7z"/>
		<path class="st5" d="M123.59,281.64l-4.25-3.3c-0.61-0.47-0.72-1.35-0.25-1.96l3.4-4.39c0.47-0.61,1.35-0.72,1.96-0.25l4.25,3.3
			c0.61,0.47,0.72,1.35,0.25,1.96l-3.4,4.39C125.08,282,124.2,282.11,123.59,281.64z"/>
		<path class="st5" d="M121.51,267.5l-4.25-3.3c-0.61-0.47-0.72-1.35-0.25-1.96l3.4-4.39c0.47-0.61,1.35-0.72,1.96-0.25l4.25,3.3
			c0.61,0.47,0.72,1.35,0.25,1.96l-3.4,4.39C123,267.86,122.12,267.97,121.51,267.5z"/>
		<path class="st5" d="M129.95,273.44l-4.25-3.3c-0.61-0.47-0.72-1.35-0.25-1.96l3.4-4.39c0.47-0.61,1.35-0.72,1.96-0.25l4.25,3.3
			c0.61,0.47,0.72,1.35,0.25,1.96l-3.4,4.39C131.44,273.8,130.56,273.91,129.95,273.44z"/>
	</g>
	
		<linearGradient id="SVGID_2_" gradientUnits="userSpaceOnUse" x1="-109.3065" y1="-7.55" x2="-84.0825" y2="24.7553" gradientTransform="matrix(0.9901 -0.2692 0.2273 0.9904 197.3528 225.6401)">
		<stop  offset="0.3077" style="stop-color:#D9EBF2"/>
		<stop  offset="0.3476" style="stop-color:#D7EAF1"/>
		<stop  offset="0.362" style="stop-color:#D0E4ED"/>
		<stop  offset="0.3722" style="stop-color:#C5DBE5"/>
		<stop  offset="0.3754" style="stop-color:#BFD7E2"/>
		<stop  offset="0.598" style="stop-color:#809FAE"/>
		<stop  offset="1" style="stop-color:#063248"/>
	</linearGradient>
	<path class="st6" d="M114.06,239.31l-1.65-1.28c-3.95-3.06-10.5-1.23-14.63,4.09L77.2,268.68l15.97,12.37l20.58-26.57
		C117.87,249.17,118.01,242.37,114.06,239.31z"/>
	
		<linearGradient id="SVGID_3_" gradientUnits="userSpaceOnUse" x1="110.1989" y1="-2301.718" x2="148.1899" y2="-2301.718" gradientTransform="matrix(-0.5651 -0.4379 0.4159 -0.5368 1143.4625 -947.5665)">
		<stop  offset="0.2789" style="stop-color:#91AEBC"/>
		<stop  offset="0.3112" style="stop-color:#A8C1CD"/>
		<stop  offset="0.369" style="stop-color:#D9EBF2"/>
	</linearGradient>
	<path class="st7" d="M111.65,223.39l17.25,13.36l-3.04,3.92c-2.01,2.6-5.75,3.07-8.35,1.06l-7.84-6.07
		c-2.6-2.01-3.07-5.75-1.06-8.35L111.65,223.39z"/>
	<circle class="st8" cx="121.94" cy="227.93" r="2.53"/>
</g>
<linearGradient id="SVGID_4_" gradientUnits="userSpaceOnUse" x1="66.3789" y1="281.1423" x2="69.2957" y2="283.4172">
	<stop  offset="0.3077" style="stop-color:#D9EBF2"/>
	<stop  offset="0.3476" style="stop-color:#D7EAF1"/>
	<stop  offset="0.362" style="stop-color:#D0E4ED"/>
	<stop  offset="0.3722" style="stop-color:#C5DBE5"/>
	<stop  offset="0.3754" style="stop-color:#BFD7E2"/>
	<stop  offset="0.598" style="stop-color:#809FAE"/>
	<stop  offset="1" style="stop-color:#063248"/>
</linearGradient>
<circle class="st9" cx="67.44" cy="281.97" r="0.92"/>
<linearGradient id="SVGID_5_" gradientUnits="userSpaceOnUse" x1="102.6628" y1="207.6012" x2="105.5796" y2="209.876">
	<stop  offset="0.3077" style="stop-color:#D9EBF2"/>
	<stop  offset="0.3476" style="stop-color:#D7EAF1"/>
	<stop  offset="0.362" style="stop-color:#D0E4ED"/>
	<stop  offset="0.3722" style="stop-color:#C5DBE5"/>
	<stop  offset="0.3754" style="stop-color:#BFD7E2"/>
	<stop  offset="0.598" style="stop-color:#809FAE"/>
	<stop  offset="1" style="stop-color:#063248"/>
</linearGradient>
<circle class="st10" cx="103.73" cy="208.43" r="0.92"/>
<linearGradient id="SVGID_6_" gradientUnits="userSpaceOnUse" x1="127.8426" y1="212.8241" x2="130.7594" y2="215.0989">
	<stop  offset="0.3077" style="stop-color:#D9EBF2"/>
	<stop  offset="0.3476" style="stop-color:#D7EAF1"/>
	<stop  offset="0.362" style="stop-color:#D0E4ED"/>
	<stop  offset="0.3722" style="stop-color:#C5DBE5"/>
	<stop  offset="0.3754" style="stop-color:#BFD7E2"/>
	<stop  offset="0.598" style="stop-color:#809FAE"/>
	<stop  offset="1" style="stop-color:#063248"/>
</linearGradient>
<circle class="st11" cx="128.91" cy="213.65" r="0.92"/>
<linearGradient id="SVGID_7_" gradientUnits="userSpaceOnUse" x1="86.7192" y1="197.1004" x2="89.636" y2="199.3753">
	<stop  offset="0.3077" style="stop-color:#D9EBF2"/>
	<stop  offset="0.3476" style="stop-color:#D7EAF1"/>
	<stop  offset="0.362" style="stop-color:#D0E4ED"/>
	<stop  offset="0.3722" style="stop-color:#C5DBE5"/>
	<stop  offset="0.3754" style="stop-color:#BFD7E2"/>
	<stop  offset="0.598" style="stop-color:#809FAE"/>
	<stop  offset="1" style="stop-color:#063248"/>
</linearGradient>
<circle class="st12" cx="87.78" cy="197.93" r="0.92"/>
<linearGradient id="SVGID_8_" gradientUnits="userSpaceOnUse" x1="55.9729" y1="218.2325" x2="58.8897" y2="220.5073">
	<stop  offset="0.3077" style="stop-color:#D9EBF2"/>
	<stop  offset="0.3476" style="stop-color:#D7EAF1"/>
	<stop  offset="0.362" style="stop-color:#D0E4ED"/>
	<stop  offset="0.3722" style="stop-color:#C5DBE5"/>
	<stop  offset="0.3754" style="stop-color:#BFD7E2"/>
	<stop  offset="0.598" style="stop-color:#809FAE"/>
	<stop  offset="1" style="stop-color:#063248"/>
</linearGradient>
<circle class="st13" cx="57.04" cy="219.06" r="0.92"/>
<linearGradient id="SVGID_9_" gradientUnits="userSpaceOnUse" x1="98.5578" y1="227.0945" x2="101.4746" y2="229.3693">
	<stop  offset="0.3077" style="stop-color:#D9EBF2"/>
	<stop  offset="0.3476" style="stop-color:#D7EAF1"/>
	<stop  offset="0.362" style="stop-color:#D0E4ED"/>
	<stop  offset="0.3722" style="stop-color:#C5DBE5"/>
	<stop  offset="0.3754" style="stop-color:#BFD7E2"/>
	<stop  offset="0.598" style="stop-color:#809FAE"/>
	<stop  offset="1" style="stop-color:#063248"/>
</linearGradient>
<circle class="st14" cx="99.62" cy="227.93" r="0.92"/>
<linearGradient id="SVGID_10_" gradientUnits="userSpaceOnUse" x1="79.3966" y1="216.4006" x2="82.3134" y2="218.6754">
	<stop  offset="0.3077" style="stop-color:#D9EBF2"/>
	<stop  offset="0.3476" style="stop-color:#D7EAF1"/>
	<stop  offset="0.362" style="stop-color:#D0E4ED"/>
	<stop  offset="0.3722" style="stop-color:#C5DBE5"/>
	<stop  offset="0.3754" style="stop-color:#BFD7E2"/>
	<stop  offset="0.598" style="stop-color:#809FAE"/>
	<stop  offset="1" style="stop-color:#063248"/>
</linearGradient>
<circle class="st15" cx="80.46" cy="217.23" r="0.92"/>
<linearGradient id="SVGID_11_" gradientUnits="userSpaceOnUse" x1="144.4458" y1="244.9666" x2="147.3626" y2="247.2414">
	<stop  offset="0.3077" style="stop-color:#D9EBF2"/>
	<stop  offset="0.3476" style="stop-color:#D7EAF1"/>
	<stop  offset="0.362" style="stop-color:#D0E4ED"/>
	<stop  offset="0.3722" style="stop-color:#C5DBE5"/>
	<stop  offset="0.3754" style="stop-color:#BFD7E2"/>
	<stop  offset="0.598" style="stop-color:#809FAE"/>
	<stop  offset="1" style="stop-color:#063248"/>
</linearGradient>
<circle class="st16" cx="145.51" cy="245.8" r="0.92"/>
<linearGradient id="SVGID_12_" gradientUnits="userSpaceOnUse" x1="98.1546" y1="295.4006" x2="101.0714" y2="297.6754">
	<stop  offset="0.3077" style="stop-color:#D9EBF2"/>
	<stop  offset="0.3476" style="stop-color:#D7EAF1"/>
	<stop  offset="0.362" style="stop-color:#D0E4ED"/>
	<stop  offset="0.3722" style="stop-color:#C5DBE5"/>
	<stop  offset="0.3754" style="stop-color:#BFD7E2"/>
	<stop  offset="0.598" style="stop-color:#809FAE"/>
	<stop  offset="1" style="stop-color:#063248"/>
</linearGradient>
<circle class="st17" cx="99.22" cy="296.23" r="0.92"/>
<linearGradient id="SVGID_13_" gradientUnits="userSpaceOnUse" x1="75.4488" y1="303.0425" x2="78.3656" y2="305.3174">
	<stop  offset="0.3077" style="stop-color:#D9EBF2"/>
	<stop  offset="0.3476" style="stop-color:#D7EAF1"/>
	<stop  offset="0.362" style="stop-color:#D0E4ED"/>
	<stop  offset="0.3722" style="stop-color:#C5DBE5"/>
	<stop  offset="0.3754" style="stop-color:#BFD7E2"/>
	<stop  offset="0.598" style="stop-color:#809FAE"/>
	<stop  offset="1" style="stop-color:#063248"/>
</linearGradient>
<circle class="st18" cx="76.51" cy="303.87" r="0.92"/>
<linearGradient id="SVGID_14_" gradientUnits="userSpaceOnUse" x1="139.5379" y1="279.0591" x2="144.5275" y2="282.9504">
	<stop  offset="0.3077" style="stop-color:#D9EBF2"/>
	<stop  offset="0.3476" style="stop-color:#D7EAF1"/>
	<stop  offset="0.362" style="stop-color:#D0E4ED"/>
	<stop  offset="0.3722" style="stop-color:#C5DBE5"/>
	<stop  offset="0.3754" style="stop-color:#BFD7E2"/>
	<stop  offset="0.598" style="stop-color:#809FAE"/>
	<stop  offset="1" style="stop-color:#063248"/>
</linearGradient>
<circle class="st19" cx="141.36" cy="280.48" r="1.57"/>
<linearGradient id="SVGID_15_" gradientUnits="userSpaceOnUse" x1="127.3329" y1="246.859" x2="132.3224" y2="250.7504">
	<stop  offset="0.3077" style="stop-color:#D9EBF2"/>
	<stop  offset="0.3476" style="stop-color:#D7EAF1"/>
	<stop  offset="0.362" style="stop-color:#D0E4ED"/>
	<stop  offset="0.3722" style="stop-color:#C5DBE5"/>
	<stop  offset="0.3754" style="stop-color:#BFD7E2"/>
	<stop  offset="0.598" style="stop-color:#809FAE"/>
	<stop  offset="1" style="stop-color:#063248"/>
</linearGradient>
<circle class="st20" cx="129.16" cy="248.28" r="1.57"/>
<linearGradient id="SVGID_16_" gradientUnits="userSpaceOnUse" x1="42.5298" y1="243.4602" x2="47.5193" y2="247.3515">
	<stop  offset="0.3077" style="stop-color:#D9EBF2"/>
	<stop  offset="0.3476" style="stop-color:#D7EAF1"/>
	<stop  offset="0.362" style="stop-color:#D0E4ED"/>
	<stop  offset="0.3722" style="stop-color:#C5DBE5"/>
	<stop  offset="0.3754" style="stop-color:#BFD7E2"/>
	<stop  offset="0.598" style="stop-color:#809FAE"/>
	<stop  offset="1" style="stop-color:#063248"/>
</linearGradient>
<circle class="st21" cx="44.35" cy="244.88" r="1.57"/>
<linearGradient id="SVGID_17_" gradientUnits="userSpaceOnUse" x1="55.7208" y1="261.3067" x2="56.8818" y2="262.2122">
	<stop  offset="0.3077" style="stop-color:#D9EBF2"/>
	<stop  offset="0.3476" style="stop-color:#D7EAF1"/>
	<stop  offset="0.362" style="stop-color:#D0E4ED"/>
	<stop  offset="0.3722" style="stop-color:#C5DBE5"/>
	<stop  offset="0.3754" style="stop-color:#BFD7E2"/>
	<stop  offset="0.598" style="stop-color:#809FAE"/>
	<stop  offset="1" style="stop-color:#063248"/>
</linearGradient>
<circle class="st22" cx="56.14" cy="261.64" r="0.36"/>
<linearGradient id="SVGID_18_" gradientUnits="userSpaceOnUse" x1="97.0074" y1="285.6612" x2="98.1684" y2="286.5666">
	<stop  offset="0.3077" style="stop-color:#D9EBF2"/>
	<stop  offset="0.3476" style="stop-color:#D7EAF1"/>
	<stop  offset="0.362" style="stop-color:#D0E4ED"/>
	<stop  offset="0.3722" style="stop-color:#C5DBE5"/>
	<stop  offset="0.3754" style="stop-color:#BFD7E2"/>
	<stop  offset="0.598" style="stop-color:#809FAE"/>
	<stop  offset="1" style="stop-color:#063248"/>
</linearGradient>
<circle class="st23" cx="97.43" cy="285.99" r="0.36"/>
<linearGradient id="SVGID_19_" gradientUnits="userSpaceOnUse" x1="66.3789" y1="261.6963" x2="69.2957" y2="263.9711">
	<stop  offset="0.3077" style="stop-color:#D9EBF2"/>
	<stop  offset="0.3476" style="stop-color:#D7EAF1"/>
	<stop  offset="0.362" style="stop-color:#D0E4ED"/>
	<stop  offset="0.3722" style="stop-color:#C5DBE5"/>
	<stop  offset="0.3754" style="stop-color:#BFD7E2"/>
	<stop  offset="0.598" style="stop-color:#809FAE"/>
	<stop  offset="1" style="stop-color:#063248"/>
</linearGradient>
<circle class="st24" cx="67.44" cy="262.53" r="0.92"/>
<linearGradient id="SVGID_20_" gradientUnits="userSpaceOnUse" x1="43.1127" y1="270.4957" x2="46.0295" y2="272.7705">
	<stop  offset="0.3077" style="stop-color:#D9EBF2"/>
	<stop  offset="0.3476" style="stop-color:#D7EAF1"/>
	<stop  offset="0.362" style="stop-color:#D0E4ED"/>
	<stop  offset="0.3722" style="stop-color:#C5DBE5"/>
	<stop  offset="0.3754" style="stop-color:#BFD7E2"/>
	<stop  offset="0.598" style="stop-color:#809FAE"/>
	<stop  offset="1" style="stop-color:#063248"/>
</linearGradient>
<circle class="st25" cx="44.18" cy="271.33" r="0.92"/>
<linearGradient id="SVGID_21_" gradientUnits="userSpaceOnUse" x1="122.5463" y1="306.4565" x2="123.7072" y2="307.3619">
	<stop  offset="0.3077" style="stop-color:#D9EBF2"/>
	<stop  offset="0.3476" style="stop-color:#D7EAF1"/>
	<stop  offset="0.362" style="stop-color:#D0E4ED"/>
	<stop  offset="0.3722" style="stop-color:#C5DBE5"/>
	<stop  offset="0.3754" style="stop-color:#BFD7E2"/>
	<stop  offset="0.598" style="stop-color:#809FAE"/>
	<stop  offset="1" style="stop-color:#063248"/>
</linearGradient>
<circle class="st26" cx="122.97" cy="306.79" r="0.36"/>
<linearGradient id="SVGID_22_" gradientUnits="userSpaceOnUse" x1="136.9689" y1="294.4846" x2="139.8857" y2="296.7595">
	<stop  offset="0.3077" style="stop-color:#D9EBF2"/>
	<stop  offset="0.3476" style="stop-color:#D7EAF1"/>
	<stop  offset="0.362" style="stop-color:#D0E4ED"/>
	<stop  offset="0.3722" style="stop-color:#C5DBE5"/>
	<stop  offset="0.3754" style="stop-color:#BFD7E2"/>
	<stop  offset="0.598" style="stop-color:#809FAE"/>
	<stop  offset="1" style="stop-color:#063248"/>
</linearGradient>
<circle class="st27" cx="138.03" cy="295.32" r="0.92"/>
</svg>
