<?xml version="1.0" encoding="utf-8"?>
<!-- Generator: Adobe Illustrator 25.0.0, SVG Export Plug-In . SVG Version: 6.00 Build 0)  -->
<svg version="1.1" id="Слой_2" xmlns="http://www.w3.org/2000/svg" xmlns:xlink="http://www.w3.org/1999/xlink" x="0px" y="0px"
	 viewBox="0 0 512 200" style="enable-background:new 0 0 512 200;" xml:space="preserve">
<style type="text/css">
	.st0{fill:#FFFFFF;}
	.st1{fill:url(#SVGID_1_);}
	.st2{fill:#063248;}
	.st3{fill:#D85624;}
	.st4{fill:#1F8BAA;}
	.st5{fill:#036D77;}
	.st6{fill:url(#SVGID_2_);}
	.st7{fill:url(#SVGID_3_);}
	.st8{fill:#91AEBC;}
	.st9{fill:url(#SVGID_4_);}
	.st10{opacity:0.46;fill:url(#SVGID_5_);}
	.st11{opacity:0.46;fill:url(#SVGID_6_);}
	.st12{opacity:0.21;fill:url(#SVGID_7_);}
	.st13{opacity:0.21;fill:url(#SVGID_8_);}
	.st14{opacity:0.21;fill:url(#SVGID_9_);}
	.st15{fill:url(#SVGID_10_);}
	.st16{fill:url(#SVGID_11_);}
	.st17{opacity:0.46;fill:url(#SVGID_12_);}
	.st18{opacity:0.21;fill:url(#SVGID_13_);}
	.st19{opacity:0.21;fill:url(#SVGID_14_);}
	.st20{opacity:0.21;fill:url(#SVGID_15_);}
	.st21{opacity:0.47;fill:url(#SVGID_16_);}
	.st22{fill:url(#SVGID_17_);}
	.st23{fill:url(#SVGID_18_);}
	.st24{opacity:0.46;fill:url(#SVGID_19_);}
	.st25{fill:url(#SVGID_20_);}
	.st26{fill:url(#SVGID_21_);}
	.st27{opacity:0.46;fill:url(#SVGID_22_);}
</style>
<path class="st0" d="M477.94,164.18H104.5c-16.8,0-30.41-13.62-30.41-30.41V72.46c0-16.8,13.62-30.41,30.41-30.41h373.45
	c16.8,0,30.41,13.62,30.41,30.41v61.31C508.36,150.56,494.74,164.18,477.94,164.18z"/>
<linearGradient id="SVGID_1_" gradientUnits="userSpaceOnUse" x1="286.6007" y1="41.4226" x2="286.6007" y2="168.1345">
	<stop  offset="0" style="stop-color:#FFFFFF"/>
	<stop  offset="0.2181" style="stop-color:#C0E2E6"/>
	<stop  offset="0.7203" style="stop-color:#239AA9"/>
	<stop  offset="0.8304" style="stop-color:#008A9B"/>
	<stop  offset="0.9086" style="stop-color:#008899"/>
	<stop  offset="0.9368" style="stop-color:#018193"/>
	<stop  offset="0.9569" style="stop-color:#017688"/>
	<stop  offset="0.9732" style="stop-color:#036578"/>
	<stop  offset="0.9869" style="stop-color:#044F63"/>
	<stop  offset="0.999" style="stop-color:#06344A"/>
	<stop  offset="1" style="stop-color:#063248"/>
</linearGradient>
<path class="st1" d="M474.64,158.3H98.56c-13.72,0-24.84-11.12-24.84-24.84V72.77c0-13.72,11.12-24.84,24.84-24.84h376.08
	c13.72,0,24.84,11.12,24.84,24.84v60.69C499.48,147.18,488.36,158.3,474.64,158.3z"/>
<circle class="st0" cx="80.67" cy="103.11" r="77.02"/>
<circle class="st2" cx="80.67" cy="103.11" r="72.29"/>
<polygon class="st3" points="116.52,120.87 94.72,112.88 88.77,135.88 89.21,120.12 89.64,104.35 103.08,112.61 "/>
<polygon class="st3" points="46.41,105.86 66.94,95.03 53.85,75.21 65.27,86.09 76.68,96.97 61.55,101.42 "/>
<g>
	<g>
		<path class="st4" d="M51.13,109.08L36.78,97.97c-1.89-1.47-2.24-4.19-0.77-6.09L54.98,67.4c1.47-1.89,4.19-2.24,6.09-0.77
			l14.34,11.11c1.89,1.47,2.24,4.19,0.77,6.09l-18.97,24.48C55.75,110.2,53.02,110.55,51.13,109.08z"/>
		<path class="st5" d="M44.04,98.96l-4.87-3.78c-0.61-0.47-0.72-1.35-0.25-1.96l3.89-5.02c0.47-0.61,1.35-0.72,1.96-0.25l4.87,3.78
			c0.61,0.47,0.72,1.35,0.25,1.96L46,98.71C45.53,99.32,44.65,99.43,44.04,98.96z"/>
		<path class="st5" d="M53.28,105.46l-4.87-3.78c-0.61-0.47-0.72-1.35-0.25-1.96l3.89-5.02c0.47-0.61,1.35-0.72,1.96-0.25l4.87,3.78
			c0.61,0.47,0.72,1.35,0.25,1.96l-3.89,5.02C54.77,105.82,53.89,105.93,53.28,105.46z"/>
		<path class="st5" d="M51.07,89.75l-4.87-3.78c-0.61-0.47-0.72-1.35-0.25-1.96l3.89-5.02c0.47-0.61,1.35-0.72,1.96-0.25l4.87,3.78
			c0.61,0.47,0.72,1.35,0.25,1.96l-3.89,5.02C52.56,90.11,51.68,90.22,51.07,89.75z"/>
		<path class="st5" d="M60.31,96.25l-4.87-3.78c-0.61-0.47-0.72-1.35-0.25-1.96l3.89-5.02c0.47-0.61,1.35-0.72,1.96-0.25l4.87,3.78
			c0.61,0.47,0.72,1.35,0.25,1.96L62.28,96C61.8,96.61,60.92,96.72,60.31,96.25z"/>
		<path class="st5" d="M58.04,80.76l-4.87-3.78c-0.61-0.47-0.72-1.35-0.25-1.96l3.89-5.02c0.47-0.61,1.35-0.72,1.96-0.25l4.87,3.78
			c0.61,0.47,0.72,1.35,0.25,1.96L60,80.51C59.52,81.12,58.65,81.23,58.04,80.76z"/>
		<path class="st5" d="M67.28,87.27l-4.87-3.78c-0.61-0.47-0.72-1.35-0.25-1.96l3.89-5.02c0.47-0.61,1.35-0.72,1.96-0.25l4.87,3.78
			c0.61,0.47,0.72,1.35,0.25,1.96l-3.89,5.02C68.76,87.63,67.89,87.74,67.28,87.27z"/>
	</g>
	<g>
		<path class="st4" d="M97.85,144.63l-14.34-11.11c-1.89-1.47-2.24-4.19-0.77-6.09l18.97-24.48c1.47-1.89,4.19-2.24,6.09-0.77
			l14.34,11.11c1.89,1.47,2.24,4.19,0.77,6.09l-18.97,24.48C102.47,145.75,99.74,146.1,97.85,144.63z"/>
		<path class="st5" d="M90.77,134.5l-4.87-3.78c-0.61-0.47-0.72-1.35-0.25-1.96l3.89-5.02c0.47-0.61,1.35-0.72,1.96-0.25l4.87,3.78
			c0.61,0.47,0.72,1.35,0.25,1.96l-3.89,5.02C92.26,134.87,91.38,134.98,90.77,134.5z"/>
		<path class="st5" d="M100.01,141.01l-4.87-3.78c-0.61-0.47-0.72-1.35-0.25-1.96l3.89-5.02c0.47-0.61,1.35-0.72,1.96-0.25
			l4.87,3.78c0.61,0.47,0.72,1.35,0.25,1.96l-3.89,5.02C101.5,141.37,100.62,141.48,100.01,141.01z"/>
		<path class="st5" d="M97.8,125.3l-4.87-3.78c-0.61-0.47-0.72-1.35-0.25-1.96l3.89-5.02c0.47-0.61,1.35-0.72,1.96-0.25l4.87,3.78
			c0.61,0.47,0.72,1.35,0.25,1.96l-3.89,5.02C99.29,125.66,98.41,125.77,97.8,125.3z"/>
		<path class="st5" d="M107.04,131.8l-4.87-3.78c-0.61-0.47-0.72-1.35-0.25-1.96l3.89-5.02c0.47-0.61,1.35-0.72,1.96-0.25l4.87,3.78
			c0.61,0.47,0.72,1.35,0.25,1.96l-3.89,5.02C108.53,132.16,107.65,132.27,107.04,131.8z"/>
		<path class="st5" d="M104.76,116.31l-4.87-3.78c-0.61-0.47-0.72-1.35-0.25-1.96l3.89-5.02c0.47-0.61,1.35-0.72,1.96-0.25
			l4.87,3.78c0.61,0.47,0.72,1.35,0.25,1.96l-3.89,5.02C106.25,116.67,105.37,116.78,104.76,116.31z"/>
		<path class="st5" d="M114,122.82l-4.87-3.78c-0.61-0.47-0.72-1.35-0.25-1.96l3.89-5.02c0.47-0.61,1.35-0.72,1.96-0.25l4.87,3.78
			c0.61,0.47,0.72,1.35,0.25,1.96l-3.89,5.02C115.49,123.18,114.61,123.29,114,122.82z"/>
	</g>
	
		<linearGradient id="SVGID_2_" gradientUnits="userSpaceOnUse" x1="-129.0525" y1="-166.0654" x2="-101.4154" y2="-130.6695" gradientTransform="matrix(0.9901 -0.2692 0.2273 0.9904 232.8176 224.145)">
		<stop  offset="0.3077" style="stop-color:#D9EBF2"/>
		<stop  offset="0.3476" style="stop-color:#D7EAF1"/>
		<stop  offset="0.362" style="stop-color:#D0E4ED"/>
		<stop  offset="0.3722" style="stop-color:#C5DBE5"/>
		<stop  offset="0.3754" style="stop-color:#BFD7E2"/>
		<stop  offset="0.598" style="stop-color:#809FAE"/>
		<stop  offset="1" style="stop-color:#063248"/>
	</linearGradient>
	<path class="st6" d="M96.49,85.34l-1.81-1.4c-4.33-3.36-11.51-1.35-16.02,4.48L56.1,117.53l17.5,13.56l22.55-29.11
		C100.67,96.15,100.82,88.7,96.49,85.34z"/>
	
		<linearGradient id="SVGID_3_" gradientUnits="userSpaceOnUse" x1="126.8209" y1="-2475.1372" x2="168.4465" y2="-2475.1372" gradientTransform="matrix(-0.5651 -0.4379 0.4159 -0.5368 1208.3479 -1187.3064)">
		<stop  offset="0.2789" style="stop-color:#91AEBC"/>
		<stop  offset="0.3112" style="stop-color:#A8C1CD"/>
		<stop  offset="0.369" style="stop-color:#D9EBF2"/>
	</linearGradient>
	<path class="st7" d="M93.85,67.9l18.9,14.64l-3.67,4.74c-2.01,2.6-5.75,3.07-8.35,1.06L91.23,81c-2.6-2.01-3.07-5.75-1.06-8.35
		L93.85,67.9z"/>
	<circle class="st8" cx="105.12" cy="72.87" r="2.77"/>
</g>
<linearGradient id="SVGID_4_" gradientUnits="userSpaceOnUse" x1="44.2439" y1="131.1766" x2="47.4398" y2="133.6691">
	<stop  offset="0.3077" style="stop-color:#D9EBF2"/>
	<stop  offset="0.3476" style="stop-color:#D7EAF1"/>
	<stop  offset="0.362" style="stop-color:#D0E4ED"/>
	<stop  offset="0.3722" style="stop-color:#C5DBE5"/>
	<stop  offset="0.3754" style="stop-color:#BFD7E2"/>
	<stop  offset="0.598" style="stop-color:#809FAE"/>
	<stop  offset="1" style="stop-color:#063248"/>
</linearGradient>
<circle class="st9" cx="45.41" cy="132.09" r="1"/>
<linearGradient id="SVGID_5_" gradientUnits="userSpaceOnUse" x1="83.9991" y1="50.5997" x2="87.195" y2="53.0922">
	<stop  offset="0.3077" style="stop-color:#D9EBF2"/>
	<stop  offset="0.3476" style="stop-color:#D7EAF1"/>
	<stop  offset="0.362" style="stop-color:#D0E4ED"/>
	<stop  offset="0.3722" style="stop-color:#C5DBE5"/>
	<stop  offset="0.3754" style="stop-color:#BFD7E2"/>
	<stop  offset="0.598" style="stop-color:#809FAE"/>
	<stop  offset="1" style="stop-color:#063248"/>
</linearGradient>
<circle class="st10" cx="85.17" cy="51.51" r="1"/>
<linearGradient id="SVGID_6_" gradientUnits="userSpaceOnUse" x1="111.5879" y1="56.3223" x2="114.7838" y2="58.8147">
	<stop  offset="0.3077" style="stop-color:#D9EBF2"/>
	<stop  offset="0.3476" style="stop-color:#D7EAF1"/>
	<stop  offset="0.362" style="stop-color:#D0E4ED"/>
	<stop  offset="0.3722" style="stop-color:#C5DBE5"/>
	<stop  offset="0.3754" style="stop-color:#BFD7E2"/>
	<stop  offset="0.598" style="stop-color:#809FAE"/>
	<stop  offset="1" style="stop-color:#063248"/>
</linearGradient>
<circle class="st11" cx="112.76" cy="57.23" r="1"/>
<linearGradient id="SVGID_7_" gradientUnits="userSpaceOnUse" x1="66.5302" y1="39.0943" x2="69.7261" y2="41.5868">
	<stop  offset="0.3077" style="stop-color:#D9EBF2"/>
	<stop  offset="0.3476" style="stop-color:#D7EAF1"/>
	<stop  offset="0.362" style="stop-color:#D0E4ED"/>
	<stop  offset="0.3722" style="stop-color:#C5DBE5"/>
	<stop  offset="0.3754" style="stop-color:#BFD7E2"/>
	<stop  offset="0.598" style="stop-color:#809FAE"/>
	<stop  offset="1" style="stop-color:#063248"/>
</linearGradient>
<circle class="st12" cx="67.7" cy="40" r="1"/>
<linearGradient id="SVGID_8_" gradientUnits="userSpaceOnUse" x1="32.8424" y1="62.2481" x2="36.0382" y2="64.7406">
	<stop  offset="0.3077" style="stop-color:#D9EBF2"/>
	<stop  offset="0.3476" style="stop-color:#D7EAF1"/>
	<stop  offset="0.362" style="stop-color:#D0E4ED"/>
	<stop  offset="0.3722" style="stop-color:#C5DBE5"/>
	<stop  offset="0.3754" style="stop-color:#BFD7E2"/>
	<stop  offset="0.598" style="stop-color:#809FAE"/>
	<stop  offset="1" style="stop-color:#063248"/>
</linearGradient>
<circle class="st13" cx="34.01" cy="63.16" r="1"/>
<linearGradient id="SVGID_9_" gradientUnits="userSpaceOnUse" x1="79.5014" y1="71.9579" x2="82.6972" y2="74.4504">
	<stop  offset="0.3077" style="stop-color:#D9EBF2"/>
	<stop  offset="0.3476" style="stop-color:#D7EAF1"/>
	<stop  offset="0.362" style="stop-color:#D0E4ED"/>
	<stop  offset="0.3722" style="stop-color:#C5DBE5"/>
	<stop  offset="0.3754" style="stop-color:#BFD7E2"/>
	<stop  offset="0.598" style="stop-color:#809FAE"/>
	<stop  offset="1" style="stop-color:#063248"/>
</linearGradient>
<circle class="st14" cx="80.67" cy="72.87" r="1"/>
<linearGradient id="SVGID_10_" gradientUnits="userSpaceOnUse" x1="58.5071" y1="60.2409" x2="61.7029" y2="62.7334">
	<stop  offset="0.3077" style="stop-color:#D9EBF2"/>
	<stop  offset="0.3476" style="stop-color:#D7EAF1"/>
	<stop  offset="0.362" style="stop-color:#D0E4ED"/>
	<stop  offset="0.3722" style="stop-color:#C5DBE5"/>
	<stop  offset="0.3754" style="stop-color:#BFD7E2"/>
	<stop  offset="0.598" style="stop-color:#809FAE"/>
	<stop  offset="1" style="stop-color:#063248"/>
</linearGradient>
<circle class="st15" cx="59.67" cy="61.15" r="1"/>
<linearGradient id="SVGID_11_" gradientUnits="userSpaceOnUse" x1="129.7796" y1="91.5399" x2="132.9755" y2="94.0324">
	<stop  offset="0.3077" style="stop-color:#D9EBF2"/>
	<stop  offset="0.3476" style="stop-color:#D7EAF1"/>
	<stop  offset="0.362" style="stop-color:#D0E4ED"/>
	<stop  offset="0.3722" style="stop-color:#C5DBE5"/>
	<stop  offset="0.3754" style="stop-color:#BFD7E2"/>
	<stop  offset="0.598" style="stop-color:#809FAE"/>
	<stop  offset="1" style="stop-color:#063248"/>
</linearGradient>
<circle class="st16" cx="130.95" cy="92.45" r="1"/>
<linearGradient id="SVGID_12_" gradientUnits="userSpaceOnUse" x1="79.0596" y1="146.799" x2="82.2555" y2="149.2915">
	<stop  offset="0.3077" style="stop-color:#D9EBF2"/>
	<stop  offset="0.3476" style="stop-color:#D7EAF1"/>
	<stop  offset="0.362" style="stop-color:#D0E4ED"/>
	<stop  offset="0.3722" style="stop-color:#C5DBE5"/>
	<stop  offset="0.3754" style="stop-color:#BFD7E2"/>
	<stop  offset="0.598" style="stop-color:#809FAE"/>
	<stop  offset="1" style="stop-color:#063248"/>
</linearGradient>
<circle class="st17" cx="80.23" cy="147.71" r="1"/>
<linearGradient id="SVGID_13_" gradientUnits="userSpaceOnUse" x1="54.1815" y1="155.172" x2="57.3774" y2="157.6645">
	<stop  offset="0.3077" style="stop-color:#D9EBF2"/>
	<stop  offset="0.3476" style="stop-color:#D7EAF1"/>
	<stop  offset="0.362" style="stop-color:#D0E4ED"/>
	<stop  offset="0.3722" style="stop-color:#C5DBE5"/>
	<stop  offset="0.3754" style="stop-color:#BFD7E2"/>
	<stop  offset="0.598" style="stop-color:#809FAE"/>
	<stop  offset="1" style="stop-color:#063248"/>
</linearGradient>
<circle class="st18" cx="55.35" cy="156.08" r="1"/>
<linearGradient id="SVGID_14_" gradientUnits="userSpaceOnUse" x1="124.4022" y1="128.8941" x2="129.8691" y2="133.1577">
	<stop  offset="0.3077" style="stop-color:#D9EBF2"/>
	<stop  offset="0.3476" style="stop-color:#D7EAF1"/>
	<stop  offset="0.362" style="stop-color:#D0E4ED"/>
	<stop  offset="0.3722" style="stop-color:#C5DBE5"/>
	<stop  offset="0.3754" style="stop-color:#BFD7E2"/>
	<stop  offset="0.598" style="stop-color:#809FAE"/>
	<stop  offset="1" style="stop-color:#063248"/>
</linearGradient>
<circle class="st19" cx="126.4" cy="130.45" r="1.72"/>
<linearGradient id="SVGID_15_" gradientUnits="userSpaceOnUse" x1="111.0295" y1="93.6133" x2="116.4964" y2="97.877">
	<stop  offset="0.3077" style="stop-color:#D9EBF2"/>
	<stop  offset="0.3476" style="stop-color:#D7EAF1"/>
	<stop  offset="0.362" style="stop-color:#D0E4ED"/>
	<stop  offset="0.3722" style="stop-color:#C5DBE5"/>
	<stop  offset="0.3754" style="stop-color:#BFD7E2"/>
	<stop  offset="0.598" style="stop-color:#809FAE"/>
	<stop  offset="1" style="stop-color:#063248"/>
</linearGradient>
<circle class="st20" cx="113.03" cy="95.17" r="1.72"/>
<linearGradient id="SVGID_16_" gradientUnits="userSpaceOnUse" x1="18.1131" y1="89.8894" x2="23.58" y2="94.153">
	<stop  offset="0.3077" style="stop-color:#D9EBF2"/>
	<stop  offset="0.3476" style="stop-color:#D7EAF1"/>
	<stop  offset="0.362" style="stop-color:#D0E4ED"/>
	<stop  offset="0.3722" style="stop-color:#C5DBE5"/>
	<stop  offset="0.3754" style="stop-color:#BFD7E2"/>
	<stop  offset="0.598" style="stop-color:#809FAE"/>
	<stop  offset="1" style="stop-color:#063248"/>
</linearGradient>
<circle class="st21" cx="20.11" cy="91.45" r="1.72"/>
<linearGradient id="SVGID_17_" gradientUnits="userSpaceOnUse" x1="32.5662" y1="109.4433" x2="33.8382" y2="110.4354">
	<stop  offset="0.3077" style="stop-color:#D9EBF2"/>
	<stop  offset="0.3476" style="stop-color:#D7EAF1"/>
	<stop  offset="0.362" style="stop-color:#D0E4ED"/>
	<stop  offset="0.3722" style="stop-color:#C5DBE5"/>
	<stop  offset="0.3754" style="stop-color:#BFD7E2"/>
	<stop  offset="0.598" style="stop-color:#809FAE"/>
	<stop  offset="1" style="stop-color:#063248"/>
</linearGradient>
<circle class="st22" cx="33.03" cy="109.81" r="0.4"/>
<linearGradient id="SVGID_18_" gradientUnits="userSpaceOnUse" x1="77.8027" y1="136.1278" x2="79.0748" y2="137.1199">
	<stop  offset="0.3077" style="stop-color:#D9EBF2"/>
	<stop  offset="0.3476" style="stop-color:#D7EAF1"/>
	<stop  offset="0.362" style="stop-color:#D0E4ED"/>
	<stop  offset="0.3722" style="stop-color:#C5DBE5"/>
	<stop  offset="0.3754" style="stop-color:#BFD7E2"/>
	<stop  offset="0.598" style="stop-color:#809FAE"/>
	<stop  offset="1" style="stop-color:#063248"/>
</linearGradient>
<circle class="st23" cx="78.27" cy="136.49" r="0.4"/>
<linearGradient id="SVGID_19_" gradientUnits="userSpaceOnUse" x1="44.2439" y1="109.8702" x2="47.4398" y2="112.3626">
	<stop  offset="0.3077" style="stop-color:#D9EBF2"/>
	<stop  offset="0.3476" style="stop-color:#D7EAF1"/>
	<stop  offset="0.362" style="stop-color:#D0E4ED"/>
	<stop  offset="0.3722" style="stop-color:#C5DBE5"/>
	<stop  offset="0.3754" style="stop-color:#BFD7E2"/>
	<stop  offset="0.598" style="stop-color:#809FAE"/>
	<stop  offset="1" style="stop-color:#063248"/>
</linearGradient>
<circle class="st24" cx="45.41" cy="110.78" r="1"/>
<linearGradient id="SVGID_20_" gradientUnits="userSpaceOnUse" x1="18.7518" y1="119.5114" x2="21.9477" y2="122.0039">
	<stop  offset="0.3077" style="stop-color:#D9EBF2"/>
	<stop  offset="0.3476" style="stop-color:#D7EAF1"/>
	<stop  offset="0.362" style="stop-color:#D0E4ED"/>
	<stop  offset="0.3722" style="stop-color:#C5DBE5"/>
	<stop  offset="0.3754" style="stop-color:#BFD7E2"/>
	<stop  offset="0.598" style="stop-color:#809FAE"/>
	<stop  offset="1" style="stop-color:#063248"/>
</linearGradient>
<circle class="st25" cx="19.92" cy="120.42" r="1"/>
<linearGradient id="SVGID_21_" gradientUnits="userSpaceOnUse" x1="105.7849" y1="158.9126" x2="107.0569" y2="159.9047">
	<stop  offset="0.3077" style="stop-color:#D9EBF2"/>
	<stop  offset="0.3476" style="stop-color:#D7EAF1"/>
	<stop  offset="0.362" style="stop-color:#D0E4ED"/>
	<stop  offset="0.3722" style="stop-color:#C5DBE5"/>
	<stop  offset="0.3754" style="stop-color:#BFD7E2"/>
	<stop  offset="0.598" style="stop-color:#809FAE"/>
	<stop  offset="1" style="stop-color:#063248"/>
</linearGradient>
<circle class="st26" cx="106.25" cy="159.27" r="0.4"/>
<linearGradient id="SVGID_22_" gradientUnits="userSpaceOnUse" x1="121.5873" y1="145.7954" x2="124.7832" y2="148.2879">
	<stop  offset="0.3077" style="stop-color:#D9EBF2"/>
	<stop  offset="0.3476" style="stop-color:#D7EAF1"/>
	<stop  offset="0.362" style="stop-color:#D0E4ED"/>
	<stop  offset="0.3722" style="stop-color:#C5DBE5"/>
	<stop  offset="0.3754" style="stop-color:#BFD7E2"/>
	<stop  offset="0.598" style="stop-color:#809FAE"/>
	<stop  offset="1" style="stop-color:#063248"/>
</linearGradient>
<circle class="st27" cx="122.75" cy="146.71" r="1"/>
</svg>
